# 3ds Max Wavefront OBJ Exporter v0.97b - (c)2007 guruware
# File Created: 21.05.2016 00:45:38

#
# object number4
#

v  1.8267 -5.6108 -1.2727
v  1.8267 -2.2700 -1.2727
v  1.9732 -5.6108 0.2487
v  1.9732 -2.2700 0.2487
v  3.7176 -2.2700 -1.4548
v  3.8641 -2.2700 0.0667
v  3.7176 -0.6979 -1.4548
v  3.8641 -0.6979 0.0667
v  1.8267 -0.6979 -1.2727
v  1.9732 -0.6979 0.2487
v  1.8267 8.3856 -1.2727
v  1.9732 8.3856 0.2487
v  0.4357 8.3856 -1.1388
v  0.5822 8.3856 0.3827
v  -5.9543 -0.6979 -0.5235
v  -5.8078 -0.6979 0.9980
v  -5.9543 -2.2700 -0.5235
v  -5.8078 -2.2700 0.9980
v  0.1096 -2.2700 -1.1074
v  0.2561 -2.2700 0.4141
v  0.1097 -5.6108 -1.1074
v  0.2561 -5.6108 0.4141
v  -4.2709 -0.6979 -0.6856
v  0.1097 5.6046 -1.1074
v  -4.1244 -0.6979 0.8359
v  0.2561 5.6046 0.4141
v  0.1097 -0.6979 -1.1074
v  0.2561 -0.6979 0.4141
v  1.7333 -5.3488 0.4912
v  1.7333 -2.0080 0.4912
v  3.6242 -2.0080 0.3091
v  3.6242 -0.9599 0.3091
v  1.7333 -0.9599 0.4912
v  1.7333 8.1235 0.4912
v  0.7382 8.1235 0.5870
v  -5.5261 -0.7811 1.1902
v  -5.5261 -2.0080 1.1902
v  0.5379 -2.0080 0.6063
v  0.5379 -5.3488 0.6063
v  -4.6037 -0.9599 1.1014
v  0.5379 6.4376 0.6063
v  0.5379 -0.9599 0.6063
# 42 vertices

vn 0.9954 0.0000 -0.0958
vn 0.9954 0.0000 -0.0958
vn 0.9954 0.0000 -0.0958
vn 0.9954 0.0000 -0.0958
vn 0.9954 0.0000 -0.0958
vn 0.9954 0.0000 -0.0958
vn 0.0000 -1.0000 0.0000
vn 0.0000 -1.0000 0.0000
vn 0.0000 -1.0000 0.0000
vn 0.0000 -1.0000 0.0000
vn 0.0000 -1.0000 0.0000
vn 0.0000 -1.0000 0.0000
vn 0.9954 0.0000 -0.0958
vn 0.9954 0.0000 -0.0958
vn 0.9954 0.0000 -0.0958
vn 0.9954 0.0000 -0.0958
vn 0.9954 0.0000 -0.0958
vn 0.9954 0.0000 -0.0958
vn 0.0000 1.0000 0.0000
vn 0.0000 1.0000 0.0000
vn 0.0000 1.0000 0.0000
vn 0.0000 1.0000 0.0000
vn 0.0000 1.0000 0.0000
vn 0.0000 1.0000 0.0000
vn 0.9954 0.0000 -0.0958
vn 0.9954 0.0000 -0.0958
vn 0.9954 0.0000 -0.0958
vn 0.9954 0.0000 -0.0958
vn 0.9954 0.0000 -0.0958
vn 0.9954 0.0000 -0.0958
vn 0.0000 1.0000 0.0000
vn 0.0000 1.0000 0.0000
vn 0.0000 1.0000 0.0000
vn 0.0000 1.0000 0.0000
vn 0.0000 1.0000 0.0000
vn 0.0000 1.0000 0.0000
vn -0.8129 0.5771 0.0783
vn -0.8129 0.5771 0.0783
vn -0.8129 0.5771 0.0783
vn -0.8129 0.5771 0.0783
vn -0.8129 0.5771 0.0783
vn -0.8129 0.5771 0.0783
vn -0.9954 0.0000 0.0958
vn -0.9954 0.0000 0.0958
vn -0.9954 0.0000 0.0958
vn -0.9954 0.0000 0.0958
vn -0.9954 0.0000 0.0958
vn -0.9954 0.0000 0.0958
vn 0.0000 -1.0000 0.0000
vn 0.0000 -1.0000 0.0000
vn 0.0000 -1.0000 0.0000
vn 0.0000 -1.0000 0.0000
vn 0.0000 -1.0000 0.0000
vn 0.0000 -1.0000 0.0000
vn -0.9954 -0.0000 0.0958
vn -0.9954 -0.0000 0.0958
vn -0.9954 -0.0000 0.0958
vn -0.9954 -0.0000 0.0958
vn -0.9954 0.0000 0.0958
vn -0.9954 -0.0000 0.0958
vn -0.0000 -1.0000 -0.0000
vn -0.0000 -1.0000 -0.0000
vn -0.0000 -1.0000 -0.0000
vn -0.0000 -1.0000 -0.0000
vn -0.0000 -1.0000 -0.0000
vn -0.0000 -1.0000 -0.0000
vn 0.8161 -0.5725 -0.0786
vn 0.8161 -0.5725 -0.0786
vn 0.8161 -0.5725 -0.0786
vn 0.8161 -0.5725 -0.0786
vn 0.8161 -0.5725 -0.0786
vn 0.8161 -0.5725 -0.0786
vn -0.9954 0.0000 0.0958
vn -0.9954 0.0000 0.0958
vn -0.9954 0.0000 0.0958
vn -0.9954 0.0000 0.0958
vn -0.9954 0.0000 0.0958
vn -0.9954 0.0000 0.0958
vn 0.0000 1.0000 0.0000
vn 0.0000 1.0000 0.0000
vn 0.0000 1.0000 0.0000
vn 0.0000 1.0000 0.0000
vn 0.0000 1.0000 0.0000
vn 0.0000 1.0000 0.0000
vn 0.7109 0.0000 0.7033
vn 0.7109 0.0000 0.7033
vn 0.7109 0.0000 0.7033
vn 0.7109 0.0000 0.7033
vn 0.7109 0.0000 0.7033
vn 0.7109 0.0000 0.7033
vn 0.0736 -0.6402 0.7647
vn 0.0736 -0.6402 0.7647
vn 0.0736 -0.6402 0.7647
vn 0.0736 -0.6402 0.7647
vn 0.0736 -0.6402 0.7647
vn 0.0736 -0.6402 0.7647
vn 0.7109 0.0000 0.7033
vn 0.7109 -0.0000 0.7033
vn 0.7109 -0.0000 0.7033
vn 0.7109 -0.0000 0.7033
vn 0.7109 -0.0000 0.7033
vn 0.7109 -0.0000 0.7033
vn 0.0736 0.6402 0.7647
vn 0.0736 0.6402 0.7647
vn 0.0736 0.6402 0.7647
vn 0.0736 0.6402 0.7647
vn 0.0736 0.6402 0.7647
vn 0.0736 0.6402 0.7647
vn 0.7109 0.0000 0.7033
vn 0.7109 0.0000 0.7033
vn 0.7109 0.0000 0.7033
vn 0.7109 0.0000 0.7033
vn 0.7109 0.0000 0.7033
vn 0.7109 0.0000 0.7033
vn 0.0736 0.6402 0.7647
vn 0.0736 0.6402 0.7647
vn 0.0736 0.6402 0.7647
vn 0.0736 0.6402 0.7647
vn 0.0736 0.6402 0.7647
vn 0.0736 0.6402 0.7647
vn -0.4468 0.3695 0.8148
vn -0.5150 0.1883 0.8363
vn -0.4468 0.3695 0.8148
vn -0.5150 0.1883 0.8363
vn -0.5150 0.1883 0.8363
vn -0.4468 0.3695 0.8148
vn -0.5150 0.1883 0.8363
vn -0.5636 0.0000 0.8260
vn -0.5150 0.1883 0.8363
vn -0.5636 0.0000 0.8260
vn -0.5636 0.0000 0.8260
vn -0.5150 0.1883 0.8363
vn 0.0736 -0.6402 0.7647
vn 0.0736 -0.6402 0.7647
vn 0.0736 -0.6402 0.7647
vn 0.0736 -0.6402 0.7647
vn 0.0736 -0.6402 0.7647
vn 0.0736 -0.6402 0.7647
vn -0.5636 0.0000 0.8261
vn -0.5636 0.0000 0.8261
vn -0.5636 0.0000 0.8261
vn -0.5636 0.0000 0.8261
vn -0.5636 0.0000 0.8261
vn -0.5636 0.0000 0.8261
vn 0.0736 -0.6402 0.7647
vn 0.0736 -0.6402 0.7647
vn 0.0736 -0.6402 0.7647
vn 0.0736 -0.6402 0.7647
vn 0.0736 -0.6402 0.7647
vn 0.0736 -0.6402 0.7647
vn 0.5961 -0.3665 0.7144
vn 0.5961 -0.3665 0.7144
vn 0.5961 -0.3665 0.7144
vn 0.5961 -0.3665 0.7144
vn 0.5961 -0.3665 0.7144
vn 0.5961 -0.3665 0.7144
vn -0.5636 0.0000 0.8261
vn -0.5636 0.0000 0.8261
vn -0.5636 0.0000 0.8261
vn -0.5636 0.0000 0.8261
vn -0.5636 0.0000 0.8261
vn -0.5636 0.0000 0.8261
vn 0.0736 0.6402 0.7647
vn 0.0736 0.6402 0.7647
vn 0.0736 0.6402 0.7647
vn 0.0736 0.6402 0.7647
vn 0.0736 0.6402 0.7647
vn 0.0736 0.6402 0.7647
vn 0.0958 -0.0000 0.9954
vn 0.0958 0.0000 0.9954
vn 0.0958 -0.0000 0.9954
vn 0.0958 0.0000 0.9954
vn 0.0958 -0.0000 0.9954
vn 0.0958 -0.0000 0.9954
vn 0.0958 0.0000 0.9954
vn 0.0958 0.0000 0.9954
vn 0.0958 0.0000 0.9954
vn 0.0958 0.0000 0.9954
vn 0.0958 0.0000 0.9954
vn 0.0958 -0.0000 0.9954
vn 0.0958 -0.0000 0.9954
vn 0.0958 0.0000 0.9954
vn 0.0958 -0.0000 0.9954
vn 0.0958 -0.0000 0.9954
vn 0.0958 -0.0000 0.9954
vn 0.0958 -0.0000 0.9954
vn 0.0958 0.0000 0.9954
vn 0.0958 -0.0000 0.9954
vn 0.0958 -0.0000 0.9954
vn 0.0958 -0.0000 0.9954
vn 0.0958 0.0000 0.9954
vn 0.0958 -0.0000 0.9954
vn 0.0958 -0.0000 0.9954
vn 0.0958 -0.0000 0.9954
vn 0.0958 -0.0000 0.9954
vn 0.0958 -0.0000 0.9954
vn 0.0958 0.0000 0.9954
vn 0.0958 -0.0000 0.9954
vn 0.0958 -0.0000 0.9954
vn 0.0958 -0.0000 0.9954
vn 0.0958 -0.0000 0.9954
vn 0.0958 -0.0000 0.9954
vn 0.0958 -0.0000 0.9954
vn 0.0958 -0.0000 0.9954
vn 0.0958 -0.0000 0.9954
vn 0.0958 -0.0000 0.9954
vn 0.0958 -0.0000 0.9954
vn 0.0958 -0.0000 0.9954
vn 0.0958 -0.0000 0.9954
vn 0.0958 -0.0000 0.9954
vn -0.0958 -0.0000 -0.9954
vn -0.0958 0.0000 -0.9954
vn -0.0958 -0.0000 -0.9954
vn -0.0958 -0.0000 -0.9954
vn -0.0958 0.0000 -0.9954
vn -0.0958 -0.0000 -0.9954
vn -0.0958 0.0000 -0.9954
vn -0.0958 -0.0000 -0.9954
vn -0.0958 -0.0000 -0.9954
vn -0.0958 0.0000 -0.9954
vn -0.0958 0.0000 -0.9954
vn -0.0958 -0.0000 -0.9954
vn -0.0958 -0.0000 -0.9954
vn -0.0958 0.0000 -0.9954
vn -0.0958 0.0000 -0.9954
vn -0.0958 -0.0000 -0.9954
vn -0.0958 -0.0000 -0.9954
vn -0.0958 0.0000 -0.9954
vn -0.0958 0.0000 -0.9954
vn -0.0958 -0.0000 -0.9954
vn -0.0958 -0.0000 -0.9954
vn -0.0958 -0.0000 -0.9954
vn -0.0958 -0.0000 -0.9954
vn -0.0958 0.0000 -0.9954
vn -0.0958 -0.0000 -0.9954
vn -0.0958 -0.0000 -0.9954
vn -0.0958 -0.0000 -0.9954
vn -0.0958 -0.0000 -0.9954
vn -0.0958 -0.0000 -0.9954
vn -0.0958 0.0000 -0.9954
vn -0.0958 -0.0000 -0.9954
vn -0.0958 -0.0000 -0.9954
vn -0.0958 -0.0000 -0.9954
vn -0.0958 -0.0000 -0.9954
vn -0.0958 0.0000 -0.9954
vn -0.0958 -0.0000 -0.9954
vn -0.0958 0.0000 -0.9954
vn -0.0958 0.0000 -0.9954
vn -0.0958 -0.0000 -0.9954
vn -0.0958 0.0000 -0.9954
vn -0.0958 0.0000 -0.9954
vn -0.0958 0.0000 -0.9954
# 252 vertex normals

g number4
f 1//1 2//2 3//3 
f 2//4 4//5 3//6 
f 2//7 5//8 4//9 
f 5//10 6//11 4//12 
f 5//13 7//14 6//15 
f 7//16 8//17 6//18 
f 7//19 9//20 8//21 
f 9//22 10//23 8//24 
f 9//25 11//26 10//27 
f 11//28 12//29 10//30 
f 11//31 13//32 12//33 
f 13//34 14//35 12//36 
f 13//37 15//38 14//39 
f 15//40 16//41 14//42 
f 15//43 17//44 16//45 
f 17//46 18//47 16//48 
f 17//49 19//50 18//51 
f 19//52 20//53 18//54 
f 19//55 21//56 20//57 
f 21//58 22//59 20//60 
f 21//61 1//62 22//63 
f 1//64 3//65 22//66 
f 23//67 24//68 25//69 
f 24//70 26//71 25//72 
f 24//73 27//74 26//75 
f 27//76 28//77 26//78 
f 27//79 23//80 28//81 
f 23//82 25//83 28//84 
f 3//85 4//86 29//87 
f 4//88 30//89 29//90 
f 4//91 6//92 30//93 
f 6//94 31//95 30//96 
f 6//97 8//98 31//99 
f 8//100 32//101 31//102 
f 8//103 10//104 32//105 
f 10//106 33//107 32//108 
f 10//109 12//110 33//111 
f 12//112 34//113 33//114 
f 12//115 14//116 34//117 
f 14//118 35//119 34//120 
f 14//121 16//122 35//123 
f 16//124 36//125 35//126 
f 16//127 18//128 36//129 
f 18//130 37//131 36//132 
f 18//133 20//134 37//135 
f 20//136 38//137 37//138 
f 20//139 22//140 38//141 
f 22//142 39//143 38//144 
f 22//145 3//146 39//147 
f 3//148 29//149 39//150 
f 25//151 26//152 40//153 
f 26//154 41//155 40//156 
f 26//157 28//158 41//159 
f 28//160 42//161 41//162 
f 28//163 25//164 42//165 
f 25//166 40//167 42//168 
f 41//169 29//170 30//171 
f 29//172 41//173 42//174 
f 38//175 39//176 29//177 
f 38//178 29//179 42//180 
f 37//181 38//182 42//183 
f 37//184 42//185 40//186 
f 36//187 37//188 40//189 
f 35//190 36//191 40//192 
f 35//193 40//194 41//195 
f 33//196 34//197 35//198 
f 33//199 35//200 41//201 
f 33//202 41//203 30//204 
f 32//205 33//206 30//207 
f 32//208 30//209 31//210 
f 24//211 2//212 1//213 
f 1//214 27//215 24//216 
f 19//217 1//218 21//219 
f 19//220 27//221 1//222 
f 17//223 27//224 19//225 
f 17//226 23//227 27//228 
f 15//229 23//230 17//231 
f 13//232 23//233 15//234 
f 13//235 24//236 23//237 
f 9//238 13//239 11//240 
f 9//241 24//242 13//243 
f 9//244 2//245 24//246 
f 7//247 2//248 9//249 
f 7//250 5//251 2//252 
# 84 faces

